<?xml version="1.0" encoding="UTF-8" standalone="no"?>
<svg
   xmlns:svg="http://www.w3.org/2000/svg"
   xmlns="http://www.w3.org/2000/svg"
   version="1.1"
   width="687.5542"
   height="232.96152"
   id="svg3927">
  <defs
     id="defs3929" />
  <g
     transform="translate(-39.674293,-387.20034)"
     id="layer1">
    <path
       d="m 132.38185,387.20034 144.85447,0 c 2.26106,0 3.8656,1.92057 3.56382,4.26927 L 259.2562,559.17648 c -4.30912,33.54262 -34.27198,60.98537 -66.58418,60.98537 l -145.645333,0 c -4.619464,0 -7.893989,-3.92363 -7.277912,-8.71673 l 20.294659,-157.9897 c 4.682643,-36.43907 37.233984,-66.25508 72.338416,-66.25508"
       id="path902"
       style="fill:#96bf0d;fill-opacity:1;fill-rule:evenodd;stroke:none" />
    <path
       d="m 169.24573,548.70658 -36.87527,-0.0501 3.84965,-25.89861 36.56379,0 c 9.80654,0 21.23073,2.18075 21.23073,11.79543 l 0,1.17809 c 0,10.51372 -14.09516,12.9752 -24.7689,12.9752 z m 5.89772,-51.89685 -33.33879,-0.0364 2.67098,-21.19657 25.95041,0 c 11.45266,0 24.76836,0.50047 24.76836,11.79543 0,6.26213 -13.0122,9.43703 -20.05096,9.43703 z m -106.682737,84.83419 116.118627,0.0888 c 30.44173,0 69.58941,-10.84797 69.58941,-40.10365 l 0,-7.0758 c 0,-14.03085 -18.08945,-24.19897 -30.66608,-27.12845 2.54229,-3.46985 29.48799,-7.5068 29.48799,-25.94986 l 0,-5.89772 c 0,-29.06208 -33.92183,-33.02447 -63.69397,-33.02447 l -97.678438,0.0364 -23.157539,139.05515 z"
       id="path904"
       style="fill:#fcfcfc;fill-opacity:1;fill-rule:evenodd;stroke:none" />
    <path
       d="m 144.40822,475.62851 -2.56179,21.20969 33.30872,0 c 7.039,0 20.07114,-3.13277 20.07114,-9.3949 0,-11.29492 -13.31592,-11.81479 -24.76836,-11.81479 l -26.04971,0 z m -8.25566,47.11682 -3.84359,25.90714 36.86807,0 c 10.67351,0 24.7679,-2.43985 24.7679,-12.95357 l 0,-1.13878 c 0,-9.61468 -11.40278,-11.81479 -21.20946,-11.81479 l -36.58292,0 z"
       id="path906"
       style="fill:#99bd19;fill-opacity:1;fill-rule:evenodd;stroke:none" />
    <path
       d="m 355.57895,387.20034 144.85274,0 c 2.26106,0 3.8656,1.92057 3.56382,4.26927 l -21.54394,167.70687 c -4.30967,33.54262 -34.27198,60.98537 -66.58304,60.98537 l -145.64533,0 c -4.61887,0 -7.89399,-3.92363 -7.27905,-8.71673 l 20.29639,-157.9897 c 4.68036,-36.43907 37.23339,-66.25508 72.33841,-66.25508"
       id="path910"
       style="fill:#1fa32e;fill-opacity:1;fill-rule:evenodd;stroke:none" />
    <path
       d="m 288.58936,577.01311 0.003,4.71963 57.81844,0.003 5.87325,-40.10652 c 2.24849,-1.50605 16.31123,-12.97352 17.69315,-12.97352 5.6005,0 38.01628,53.07717 44.81932,53.07717 l 63.0466,-0.42134 -64.53156,-81.40931 82.86985,-57.3493 c -14.93904,0 -29.88037,0 -44.81936,0 -20.77869,0 -25.61279,-3.30701 -38.45075,6.3709 -16.83396,12.69219 -34.43032,28.40501 -51.70326,39.54337 l 7.58939,-45.91427 -58.39015,0.0938 -21.81834,134.36636 z"
       id="path912"
       style="fill:#fcfcfc;fill-opacity:1;fill-rule:evenodd;stroke:none" />
    <path
       d="m 578.77432,387.20034 144.85389,0 c 2.26165,0 3.86559,1.92057 3.56381,4.26927 l -21.54503,167.70687 c -4.30803,33.54262 -34.27034,60.98537 -66.58309,60.98537 l -145.64533,0 c -4.61946,0 -7.89399,-3.92363 -7.27737,-8.71673 l 20.29471,-157.9897 c 4.68205,-36.43907 37.23339,-66.25508 72.33841,-66.25508"
       id="path916"
       style="fill:#007836;fill-opacity:1;fill-rule:evenodd;stroke:none" />
    <path
       d="m 528.34594,439.50428 167.43411,-0.009 -5.76165,35.40794 -54.39246,-0.0228 -16.83734,103.74014 -59.82956,0.0551 17.22001,-103.67805 -53.61467,-0.0902 5.78156,-35.40338 z"
       id="path918"
       style="fill:#ffffff;fill-opacity:1;fill-rule:evenodd;stroke:none" />
  </g>
</svg>
